<svg preserveAspectRatio="none" width="100%" height="100%" overflow="visible" style="display: block;" viewBox="0 0 57.4965 56.7739" fill="none" xmlns="http://www.w3.org/2000/svg">
<g id="Illustration detail">
<g id="Union" filter="url(#filter0_i_29_602)">
<path d="M40.0976 12.0304C45.8058 16.0221 48.0074 23.2057 45.9152 29.5337C45.1413 31.8745 44.228 34.2102 44.0625 36.6701L43.7531 41.2708C43.1459 50.2909 32.9915 55.2598 25.494 50.2057L9.73963 39.585C2.24232 34.5305 3.03996 23.2538 11.1739 19.3077L15.3242 17.2937C17.5413 16.2178 19.363 14.4958 21.2418 12.9011C26.3224 8.58869 33.8064 7.93486 39.6474 11.7269C39.7998 11.8246 39.9499 11.9258 40.0976 12.0304Z" fill="url(#paint0_linear_29_602)"/>
</g>
<g id="Illustration detail_2">
<path id="Vector 9569" d="M23.228 34.7075L28.5258 30.7975C28.8577 30.5525 29.2615 30.4246 29.6738 30.4337L35.9362 30.5714" stroke="var(--stroke-0, #1A1B1D)" stroke-width="1.49137" stroke-linecap="round"/>
<g id="Illustration detail_3">
<path id="Vector 9567" d="M24.8729 24.132L15.0244 25.1421C15.1965 26.7059 16.6535 29.9814 20.7498 30.1824C24.8462 30.3833 25.2053 26.2325 24.8729 24.132Z" fill="var(--fill-0, white)"/>
<path id="Vector 9568" d="M25.8517 23.5536L34.5319 18.9561C35.273 20.3439 36.4461 24.6153 32.6712 26.2185C29.7767 27.4477 26.7635 25.4749 25.8517 23.5536Z" fill="var(--fill-0, white)"/>
<path id="Subtract" d="M32.0252 20.3101C32.2708 20.503 32.4801 20.7502 32.6322 21.0461C33.1967 22.1451 32.7636 23.4937 31.6646 24.0582C30.5657 24.6228 29.2171 24.1896 28.6525 23.0907C28.5005 22.7947 28.4214 22.4806 28.4076 22.1686L32.0252 20.3101Z" fill="var(--fill-0, #1A1B1D)"/>
<path id="Subtract_2" d="M22.2983 24.4434C22.4279 24.6869 22.5123 24.9595 22.5388 25.2515C22.6453 26.4239 21.7814 27.4609 20.609 27.5674C19.4366 27.674 18.3999 26.8096 18.2933 25.6372C18.2668 25.3453 18.3007 25.0619 18.3843 24.799L22.2983 24.4434Z" fill="var(--fill-0, #1A1B1D)"/>
</g>
</g>
</g>
<defs>
<filter id="filter0_i_29_602" x="4.56521" y="9.2363" width="42.1264" height="43.8808" filterUnits="userSpaceOnUse" color-interpolation-filters="sRGB">
<feFlood flood-opacity="0" result="BackgroundImageFix"/>
<feBlend mode="normal" in="SourceGraphic" in2="BackgroundImageFix" result="shape"/>
<feColorMatrix in="SourceAlpha" type="matrix" values="0 0 0 0 0 0 0 0 0 0 0 0 0 0 0 0 0 0 127 0" result="hardAlpha"/>
<feOffset dy="0.89153"/>
<feGaussianBlur stdDeviation="1.78306"/>
<feComposite in2="hardAlpha" operator="arithmetic" k2="-1" k3="1"/>
<feColorMatrix type="matrix" values="0 0 0 0 1 0 0 0 0 1 0 0 0 0 1 0 0 0 1 0"/>
<feBlend mode="normal" in2="shape" result="effect1_innerShadow_29_602"/>
</filter>
<linearGradient id="paint0_linear_29_602" x1="39.8757" y1="11.8772" x2="17.6167" y2="44.8954" gradientUnits="userSpaceOnUse">
<stop stop-color="#8E8AFF"/>
<stop offset="1" stop-color="#7974FF"/>
</linearGradient>
</defs>
</svg>
