<svg preserveAspectRatio="none" width="100%" height="100%" overflow="visible" style="display: block;" viewBox="0 0 43.5161 45.2962" fill="none" xmlns="http://www.w3.org/2000/svg">
<g id="Illustration detail">
<g id="Union" filter="url(#filter0_i_29_565)">
<path d="M21.6005 4.81672C28.8012 4.81676 34.8691 9.6619 36.724 16.2699C37.4017 18.6839 37.9588 21.1729 39.2175 23.3413L41.5682 27.3909C46.1816 35.3387 40.4468 45.2958 31.2557 45.2962H11.9423C2.75094 45.2962 -2.98459 35.3388 1.6288 27.3909L3.98494 23.331C5.24208 21.1647 5.7991 18.6786 6.47647 16.2674C8.33244 9.66067 14.4006 4.81672 21.6005 4.81672Z" fill="url(#paint0_linear_29_565)"/>
</g>
<path id="Vector 9650" d="M18.2863 23.9291C18.3496 23.3639 19.1241 22.5808 21.7155 23.97" stroke="var(--stroke-0, #1A1B1D)" stroke-width="1.20833" stroke-linecap="round"/>
<path id="Vector 9651" d="M24.4728 4.79837L19.8184 8.44493C19.5399 8.66314 19.1302 8.4922 19.0913 8.14052C18.9276 6.66167 18.7848 5.14167 18.7184 3.95866C18.5332 0.659088 19.0725 0.572453 19.6847 0.609318C20.1636 0.638157 20.5514 2.17809 20.6575 3.5122C20.6887 3.90522 21.1701 4.14058 21.4762 3.89213L22.453 3.09941C24.2093 1.82276 25.6376 3.42028 24.5351 4.73858C24.5168 4.7605 24.4953 4.78074 24.4728 4.79837Z" stroke="var(--stroke-0, #1A1B1D)" stroke-width="1.20833" stroke-linecap="round"/>
<path id="Vector" d="M10.6087 27.4932L9.83304 28.4886" stroke="var(--stroke-0, #FFD139)" stroke-width="1.35029" stroke-linecap="round"/>
<path id="Vector_2" d="M12.878 27.4933L12.1017 28.4887" stroke="var(--stroke-0, #FFD139)" stroke-width="1.35029" stroke-linecap="round"/>
<path id="Vector_3" d="M15.0783 27.4918L14.3021 28.4872" stroke="var(--stroke-0, #FFD139)" stroke-width="1.35029" stroke-linecap="round"/>
<path id="Vector_4" d="M26.5706 27.4931L25.7949 28.4885" stroke="var(--stroke-0, #FFD139)" stroke-width="1.35029" stroke-linecap="round"/>
<path id="Vector_5" d="M28.8403 27.4917L28.064 28.4871" stroke="var(--stroke-0, #FFD139)" stroke-width="1.35029" stroke-linecap="round"/>
<path id="Vector_6" d="M31.0398 27.4933L30.2635 28.4887" stroke="var(--stroke-0, #FFD139)" stroke-width="1.35029" stroke-linecap="round"/>
<path id="Vector 9652" d="M36.1141 20.644L41.8698 24.9763C42.6467 25.5611 42.5695 26.7507 41.7235 27.2301L39.1699 28.6773C38.469 29.0745 38.2696 29.993 38.7426 30.6451L39.8146 32.1232" stroke="var(--stroke-0, #1A1B1D)" stroke-width="1.35937" stroke-linecap="round"/>
<g id="Illustration detail_2">
<path id="Vector 9619" d="M31.2216 14.1795C30.0897 14.0526 26.2188 14.8185 22.9222 15.5568C21.4155 15.8942 20.9152 17.7632 22.2197 18.5893C29.4025 23.1379 32.9828 14.3768 31.2216 14.1795Z" fill="var(--fill-0, white)"/>
<g id="Mask group">
<mask id="mask0_29_565" style="mask-type:alpha" maskUnits="userSpaceOnUse" x="21" y="14" width="11" height="6">
<path id="Vector 9621" d="M31.2216 14.1795C30.0898 14.0527 26.2188 14.8185 22.9222 15.5568C21.4155 15.8942 20.9153 17.7632 22.2198 18.5893C29.4025 23.1379 32.9828 14.3768 31.2216 14.1795Z" fill="var(--fill-0, #D9D9D9)"/>
</mask>
<g mask="url(#mask0_29_565)">
<circle id="Ellipse 111720" cx="29.7663" cy="15.2529" r="1.98345" transform="rotate(6.39335 29.7663 15.2529)" fill="var(--fill-0, #1A1B1D)"/>
</g>
</g>
<path id="Vector 9620" d="M18.1121 16.4204C17.0899 15.9648 13.6881 15.8162 10.6002 15.6904C9.05744 15.6276 8.00995 17.2933 9.00022 18.478C14.3248 24.848 19.729 17.1408 18.1121 16.4204Z" fill="var(--fill-0, white)"/>
<g id="Mask group_2">
<mask id="mask1_29_565" style="mask-type:alpha" maskUnits="userSpaceOnUse" x="8" y="15" width="11" height="6">
<path id="Vector 9621_2" d="M18.1119 16.4211C17.0897 15.9656 13.6879 15.8169 10.6 15.6912C9.05724 15.6283 8.00975 17.294 9.00002 18.4787C14.3246 24.8488 19.7288 17.1416 18.1119 16.4211Z" fill="var(--fill-0, #D9D9D9)"/>
</mask>
<g mask="url(#mask1_29_565)">
<circle id="Ellipse 111720_2" cx="17.0222" cy="17.2955" r="1.98345" transform="rotate(6.39335 17.0222 17.2955)" fill="var(--fill-0, #1A1B1D)"/>
</g>
</g>
<g id="Mask group_3">
<mask id="mask2_29_565" style="mask-type:alpha" maskUnits="userSpaceOnUse" x="21" y="14" width="11" height="6">
<path id="Vector 9621_3" d="M31.2216 14.1795C30.0898 14.0527 26.2188 14.8185 22.9222 15.5568C21.4155 15.8942 20.9153 17.7632 22.2198 18.5893C29.4025 23.1379 32.9828 14.3768 31.2216 14.1795Z" fill="var(--fill-0, #D9D9D9)"/>
</mask>
<g mask="url(#mask2_29_565)">
<circle id="Ellipse 111720_3" cx="29.7663" cy="15.2529" r="1.98345" transform="rotate(6.39335 29.7663 15.2529)" fill="var(--fill-0, #1A1B1D)"/>
</g>
</g>
<g id="Mask group_4">
<mask id="mask3_29_565" style="mask-type:alpha" maskUnits="userSpaceOnUse" x="8" y="15" width="11" height="6">
<path id="Vector 9621_4" d="M18.1119 16.4211C17.0897 15.9656 13.6879 15.8169 10.6 15.6912C9.05724 15.6283 8.00975 17.294 9.00002 18.4787C14.3246 24.8488 19.7288 17.1416 18.1119 16.4211Z" fill="var(--fill-0, #D9D9D9)"/>
</mask>
<g mask="url(#mask3_29_565)">
<circle id="Ellipse 111720_4" cx="17.0222" cy="17.2955" r="1.98345" transform="rotate(6.39335 17.0222 17.2955)" fill="var(--fill-0, #1A1B1D)"/>
</g>
</g>
</g>
<path id="Vector 9653" d="M18.2863 23.9291C18.3496 23.3639 19.1241 22.5808 21.7155 23.97" stroke="var(--stroke-0, #1A1B1D)" stroke-width="1.20833" stroke-linecap="round"/>
<path id="Vector_7" d="M10.6087 27.4932L9.83304 28.4886" stroke="var(--stroke-0, #FFD139)" stroke-width="1.35029" stroke-linecap="round"/>
<path id="Vector_8" d="M12.878 27.4933L12.1017 28.4887" stroke="var(--stroke-0, #FFD139)" stroke-width="1.35029" stroke-linecap="round"/>
<path id="Vector_9" d="M15.0783 27.4918L14.3021 28.4872" stroke="var(--stroke-0, #FFD139)" stroke-width="1.35029" stroke-linecap="round"/>
<path id="Vector_10" d="M26.5706 27.4931L25.7949 28.4885" stroke="var(--stroke-0, #FFD139)" stroke-width="1.35029" stroke-linecap="round"/>
<path id="Vector_11" d="M28.8403 27.4917L28.064 28.4871" stroke="var(--stroke-0, #FFD139)" stroke-width="1.35029" stroke-linecap="round"/>
<path id="Vector_12" d="M31.0398 27.4933L30.2635 28.4887" stroke="var(--stroke-0, #FFD139)" stroke-width="1.35029" stroke-linecap="round"/>
<path id="Vector 9654" d="M36.1141 20.644L41.8698 24.9763C42.6467 25.5611 42.5695 26.7507 41.7235 27.2301L39.1699 28.6773C38.469 29.0745 38.2696 29.993 38.7426 30.6451L39.8146 32.1232" stroke="var(--stroke-0, #1A1B1D)" stroke-width="1.35937" stroke-linecap="round"/>
</g>
<defs>
<filter id="filter0_i_29_565" x="0" y="4.81672" width="43.1972" height="41.3857" filterUnits="userSpaceOnUse" color-interpolation-filters="sRGB">
<feFlood flood-opacity="0" result="BackgroundImageFix"/>
<feBlend mode="normal" in="SourceGraphic" in2="BackgroundImageFix" result="shape"/>
<feColorMatrix in="SourceAlpha" type="matrix" values="0 0 0 0 0 0 0 0 0 0 0 0 0 0 0 0 0 0 127 0" result="hardAlpha"/>
<feOffset dy="0.90625"/>
<feGaussianBlur stdDeviation="1.8125"/>
<feComposite in2="hardAlpha" operator="arithmetic" k2="-1" k3="1"/>
<feColorMatrix type="matrix" values="0 0 0 0 1 0 0 0 0 1 0 0 0 0 1 0 0 0 1 0"/>
<feBlend mode="normal" in2="shape" result="effect1_innerShadow_29_565"/>
</filter>
<linearGradient id="paint0_linear_29_565" x1="26.1001" y1="3.77703" x2="22.1812" y2="45.3511" gradientUnits="userSpaceOnUse">
<stop stop-color="#E098FF"/>
<stop offset="1" stop-color="#CE5BFF"/>
</linearGradient>
</defs>
</svg>
